# xmcd
#
# Track frame offsets:
# 150
# 36865
# 57955
# 91752
# 130929
# 164609
#
# Disc length: 2643 seconds
#
# Revision: 1
# Processed by: cddbd v1.4PL0 Copyright (c) Steve Scherf et al.
# Submitted via: CedeCatalogueitor 2.5 http://usuarios.lycos.es/kakasboy
#
DISCID=490a5106
DTITLE=Eric Clapton - Just One Night Vol. II
DYEAR=1900
DGENRE=
TTITLE0=Double Trouble
TTITLE1=Setting Me Up
TTITLE2=Blues Power
TTITLE3=Rambling On My Mind
TTITLE4=Cocaine
TTITLE5=Further On Up The Road
EXTD=
EXTT0=
EXTT1=
EXTT2=
EXTT3=
EXTT4=
EXTT5=
PLAYORDER=
